/* XPM */
static char * screenruler_xpm[] = {
"32 32 85 1",
" 	c None",
".	c #665400",
"+	c #E8DB6D",
"@	c #E3D66D",
"#	c #E7DA6A",
"$	c #E2D144",
"%	c #E1D040",
"&	c #E3D66B",
"*	c #E8DB6E",
"=	c #D8C740",
"-	c #E4D770",
";	c #E9DC73",
">	c #D7C640",
",	c #E5D976",
"'	c #EADE77",
")	c #E5DA7A",
"!	c #EADE7B",
"~	c #E6DB7F",
"{	c #EBE080",
"]	c #E7DD84",
"^	c #ECE184",
"/	c #E8DE88",
"(	c #ECE288",
"_	c #E9DF8D",
":	c #EDE38D",
"<	c #EAE192",
"[	c #EEE491",
"}	c #E1D044",
"|	c #EBE297",
"1	c #EEE595",
"2	c #ECE39B",
"3	c #EFE69A",
"4	c #EDE5A1",
"5	c #EFE69C",
"6	c #DAC516",
"7	c #DDC926",
"8	c #DFCD35",
"9	c #EEE6A6",
"0	c #F0E8A0",
"a	c #D7C000",
"b	c #D9C40F",
"c	c #DDCA28",
"d	c #DFCC32",
"e	c #E0CF3C",
"f	c #DCC71D",
"g	c #EFE7AA",
"h	c #F1E9A4",
"i	c #D7C103",
"j	c #D9C30C",
"k	c #DAC513",
"l	c #DCC923",
"m	c #DDCA27",
"n	c #DDCA29",
"o	c #DECB2D",
"p	c #DECB2E",
"q	c #DECB2B",
"r	c #DDC924",
"s	c #F0E9AF",
"t	c #F2EAA9",
"u	c #F1EAB4",
"v	c #F2EBAD",
"w	c #F1EBB8",
"x	c #F3ECB1",
"y	c #F2EDBD",
"z	c #F4EDB6",
"A	c #F3EEC2",
"B	c #F4EEBA",
"C	c #F4EFC7",
"D	c #F5EFBF",
"E	c #F5F1CC",
"F	c #F6F0C4",
"G	c #F6F2D1",
"H	c #F6F1C8",
"I	c #F7F4D6",
"J	c #F7F3CD",
"K	c #F8F5DA",
"L	c #F8F4D1",
"M	c #F9F6DF",
"N	c #F9F5D6",
"O	c #FAF7E4",
"P	c #F9F6DA",
"Q	c #FBF9E8",
"R	c #FAF7DE",
"S	c #FCFAED",
"T	c #FFFFFF",
"................................",
".+++++++++++++++++++++++++++++@.",
".#$$$$$$$$$$$$$$$$$$$$$$$$$$$%&.",
".*$$$$.$.=.=.=.$.=.=.=.=.=.=.%-.",
".;$$$$.$.>.>.>.$.>.>.>.>.>.>.%,.",
".'$$$$.$.>.>.>.$.>.>.>.>.>.>.%).",
".!$$$$.$.>.>.>.$.>.>.>.>.>.>.%~.",
".{$$$$.$.>.>.>.$.>.>.>.>.>.>.%].",
".^$$$$.$.>.>.>.$.>.>.>.>.>.>.%/.",
".($$$$.$$$$$$$$$.$$$$$$$$$.$.%_.",
".:$$$$.$$$$$$$$$.$$$$$$$$$.$.%<.",
".[$$$$.$$$$$$$$}$$$$$$$$$$.$$%|.",
".1$$$$.$$$$$$$$$$$$$$$$$$$.$$%2.",
".3%$$$$$$$$$$$$$$$$$$$$$$}$$$%4.",
".5678...$$$$$$$$$$$$$$$$$$.$$69.",
".0aaa.b.cde$$$$$$$$$$$$$$$.$fag.",
".haaa.a.aaaijk6flmnopddooq.raas.",
".taaa.a.aaaaaaaaaaaaaaaaaa.aaau.",
".vaaa...aaaaaaaaaaaaaaaaaa.aaaw.",
".xaaaaaaaaaaaaaaaaaaaaaaaaaaaay.",
".zaaaaaaaaaaaaaaaaaaaaaaaaaaaaA.",
".BaaaaaaaaaaaaaaaaaaaaaaaaaaaaC.",
".DaaaaaaaaaaaaaaaaaaaaaaaaaaaaE.",
".FaaaaaaaaaaaaaaaaaaaaaaaaaaaaG.",
".HaaaaaaaaaaaaaaaaaaaaaaaaaaaaI.",
".JaaaaaaaaaaaaaaaaaaaaaaaaaaaaK.",
".LaaaaaaaaaaaaaaaaaaaaaaaaaaaaM.",
".NaaaaaaaaaaaaaaaaaaaaaaaaaaaaO.",
".PaaaaaaaaaaaaaaaaaaaaaaaaaaaaQ.",
".RaaaaaaaaaaaaaaaaaaaaaaaaaaaaS.",
".TTTTTTTTTTTTTTTTTTTTTTTTTTTTTT.",
"................................"};
